# xmcd
#
# Track frame offsets:
#	150
#	25650
#	47101
#	61535
#	71100
#	95556
#	112164
#	128458
#	148179
#	164077
#	172219
#	196215
#
# Disc length: 2981 seconds
#
# Revision: 0
# Processed by: cddbd v1.5.2PL0 Copyright (c) Steve Scherf et al.
# Submitted via: audiograbber 1.83.01
#
DISCID=b00ba30c
DTITLE=Son House - The Father of the Delta Blues: The Complete 1965 Sessions CD
DTITLE=2
DYEAR=1992
DGENRE=
TTITLE0=Death Letter [Alternate Take]
TTITLE1=Levee Camp Moan [Alternate Take]
TTITLE2=Grinning in Your Face [Alternate Take]
TTITLE3=John the Revelator [Alternate Take]
TTITLE4=Preachin' Blues [Alternate Take]
TTITLE5=President Kennedy
TTITLE6=Down the Staff
TTITLE7=Motherless Children
TTITLE8=Yonder Comes My Mother
TTITLE9=Shake It and Break It
TTITLE10=Pony Blues
TTITLE11=Downhearted Blues
EXTD=
EXTT0=
EXTT1=
EXTT2=
EXTT3=
EXTT4=
EXTT5=
EXTT6=
EXTT7=
EXTT8=
EXTT9=
EXTT10=
EXTT11=
PLAYORDER=
